ISO-10303-21;
HEADER;
/* Generated by software containing ST-Developer
 * from STEP Tools, Inc. (www.steptools.com) 
 */

FILE_DESCRIPTION(
/* description */ (''),
/* implementation_level */ '2;1');

FILE_NAME(
/* name */ 'Case TOP NEW(STEP).step',
/* time_stamp */ '2026-08-19T02:01:34+05:30',
/* author */ (''),
/* organization */ (''),
/* preprocessor_version */ 'ST-DEVELOPER v20.1',
/* originating_system */ 'Autodesk Translation Framework v15.8.0.0',
/* authorisation */ '');

FILE_SCHEMA (('AUTOMOTIVE_DESIGN { 1 0 10303 214 3 1 1 }'));
ENDSEC;

DATA;
#10=MECHANICAL_DESIGN_GEOMETRIC_PRESENTATION_REPRESENTATION('',(#13),#855);
#11=SHAPE_REPRESENTATION_RELATIONSHIP('SRR','None',#862,#12);
#12=ADVANCED_BREP_SHAPE_REPRESENTATION('',(#14),#854);
#13=STYLED_ITEM('',(#871),#14);
#14=MANIFOLD_SOLID_BREP('Body1',#519);
#15=FACE_BOUND('',#105,.T.);
#16=FACE_BOUND('',#106,.T.);
#17=FACE_BOUND('',#107,.T.);
#18=FACE_BOUND('',#108,.T.);
#19=PLANE('',#536);
#20=PLANE('',#540);
#21=PLANE('',#544);
#22=PLANE('',#548);
#23=PLANE('',#549);
#24=PLANE('',#550);
#25=PLANE('',#551);
#26=PLANE('',#552);
#27=PLANE('',#553);
#28=PLANE('',#554);
#29=PLANE('',#555);
#30=PLANE('',#556);
#31=PLANE('',#557);
#32=PLANE('',#558);
#33=PLANE('',#559);
#34=PLANE('',#560);
#35=PLANE('',#561);
#36=PLANE('',#562);
#37=PLANE('',#563);
#38=PLANE('',#564);
#39=PLANE('',#565);
#40=PLANE('',#566);
#41=PLANE('',#567);
#42=PLANE('',#568);
#43=PLANE('',#569);
#44=PLANE('',#570);
#45=FACE_OUTER_BOUND('',#75,.T.);
#46=FACE_OUTER_BOUND('',#76,.T.);
#47=FACE_OUTER_BOUND('',#77,.T.);
#48=FACE_OUTER_BOUND('',#78,.T.);
#49=FACE_OUTER_BOUND('',#79,.T.);
#50=FACE_OUTER_BOUND('',#80,.T.);
#51=FACE_OUTER_BOUND('',#81,.T.);
#52=FACE_OUTER_BOUND('',#82,.T.);
#53=FACE_OUTER_BOUND('',#83,.T.);
#54=FACE_OUTER_BOUND('',#84,.T.);
#55=FACE_OUTER_BOUND('',#85,.T.);
#56=FACE_OUTER_BOUND('',#86,.T.);
#57=FACE_OUTER_BOUND('',#87,.T.);
#58=FACE_OUTER_BOUND('',#88,.T.);
#59=FACE_OUTER_BOUND('',#89,.T.);
#60=FACE_OUTER_BOUND('',#90,.T.);
#61=FACE_OUTER_BOUND('',#91,.T.);
#62=FACE_OUTER_BOUND('',#92,.T.);
#63=FACE_OUTER_BOUND('',#93,.T.);
#64=FACE_OUTER_BOUND('',#94,.T.);
#65=FACE_OUTER_BOUND('',#95,.T.);
#66=FACE_OUTER_BOUND('',#96,.T.);
#67=FACE_OUTER_BOUND('',#97,.T.);
#68=FACE_OUTER_BOUND('',#98,.T.);
#69=FACE_OUTER_BOUND('',#99,.T.);
#70=FACE_OUTER_BOUND('',#100,.T.);
#71=FACE_OUTER_BOUND('',#101,.T.);
#72=FACE_OUTER_BOUND('',#102,.T.);
#73=FACE_OUTER_BOUND('',#103,.T.);
#74=FACE_OUTER_BOUND('',#104,.T.);
#75=EDGE_LOOP('',(#349,#350,#351,#352));
#76=EDGE_LOOP('',(#353));
#77=EDGE_LOOP('',(#354,#355,#356,#357));
#78=EDGE_LOOP('',(#358));
#79=EDGE_LOOP('',(#359,#360,#361,#362));
#80=EDGE_LOOP('',(#363));
#81=EDGE_LOOP('',(#364,#365,#366,#367));
#82=EDGE_LOOP('',(#368));
#83=EDGE_LOOP('',(#369,#370,#371,#372));
#84=EDGE_LOOP('',(#373,#374,#375,#376,#377));
#85=EDGE_LOOP('',(#378,#379,#380,#381));
#86=EDGE_LOOP('',(#382,#383,#384,#385));
#87=EDGE_LOOP('',(#386,#387,#388,#389));
#88=EDGE_LOOP('',(#390,#391,#392,#393));
#89=EDGE_LOOP('',(#394,#395,#396,#397,#398));
#90=EDGE_LOOP('',(#399,#400,#401,#402));
#91=EDGE_LOOP('',(#403,#404,#405,#406));
#92=EDGE_LOOP('',(#407,#408,#409,#410));
#93=EDGE_LOOP('',(#411,#412,#413,#414,#415));
#94=EDGE_LOOP('',(#416,#417,#418,#419));
#95=EDGE_LOOP('',(#420,#421,#422,#423));
#96=EDGE_LOOP('',(#424,#425,#426,#427));
#97=EDGE_LOOP('',(#428,#429,#430,#431,#432));
#98=EDGE_LOOP('',(#433,#434,#435,#436));
#99=EDGE_LOOP('',(#437,#438,#439,#440));
#100=EDGE_LOOP('',(#441,#442,#443,#444));
#101=EDGE_LOOP('',(#445,#446,#447,#448,#449,#450,#451,#452));
#102=EDGE_LOOP('',(#453,#454,#455,#456,#457,#458,#459,#460));
#103=EDGE_LOOP('',(#461,#462,#463,#464,#465,#466,#467,#468));
#104=EDGE_LOOP('',(#469,#470,#471,#472,#473,#474,#475,#476,#477,#478,#479,
#480));
#105=EDGE_LOOP('',(#481));
#106=EDGE_LOOP('',(#482));
#107=EDGE_LOOP('',(#483));
#108=EDGE_LOOP('',(#484));
#109=LINE('',#714,#169);
#110=LINE('',#721,#170);
#111=LINE('',#728,#171);
#112=LINE('',#735,#172);
#113=LINE('',#741,#173);
#114=LINE('',#743,#174);
#115=LINE('',#745,#175);
#116=LINE('',#746,#176);
#117=LINE('',#750,#177);
#118=LINE('',#751,#178);
#119=LINE('',#753,#179);
#120=LINE('',#754,#180);
#121=LINE('',#757,#181);
#122=LINE('',#759,#182);
#123=LINE('',#760,#183);
#124=LINE('',#762,#184);
#125=LINE('',#765,#185);
#126=LINE('',#767,#186);
#127=LINE('',#768,#187);
#128=LINE('',#772,#188);
#129=LINE('',#774,#189);
#130=LINE('',#776,#190);
#131=LINE('',#777,#191);
#132=LINE('',#780,#192);
#133=LINE('',#782,#193);
#134=LINE('',#784,#194);
#135=LINE('',#785,#195);
#136=LINE('',#788,#196);
#137=LINE('',#790,#197);
#138=LINE('',#791,#198);
#139=LINE('',#793,#199);
#140=LINE('',#797,#200);
#141=LINE('',#799,#201);
#142=LINE('',#801,#202);
#143=LINE('',#802,#203);
#144=LINE('',#804,#204);
#145=LINE('',#806,#205);
#146=LINE('',#807,#206);
#147=LINE('',#810,#207);
#148=LINE('',#812,#208);
#149=LINE('',#813,#209);
#150=LINE('',#815,#210);
#151=LINE('',#819,#211);
#152=LINE('',#821,#212);
#153=LINE('',#823,#213);
#154=LINE('',#824,#214);
#155=LINE('',#828,#215);
#156=LINE('',#829,#216);
#157=LINE('',#831,#217);
#158=LINE('',#832,#218);
#159=LINE('',#835,#219);
#160=LINE('',#837,#220);
#161=LINE('',#838,#221);
#162=LINE('',#840,#222);
#163=LINE('',#842,#223);
#164=LINE('',#843,#224);
#165=LINE('',#845,#225);
#166=LINE('',#846,#226);
#167=LINE('',#848,#227);
#168=LINE('',#849,#228);
#169=VECTOR('',#577,1.6);
#170=VECTOR('',#586,1.6);
#171=VECTOR('',#595,1.6);
#172=VECTOR('',#604,1.6);
#173=VECTOR('',#611,10.);
#174=VECTOR('',#612,10.);
#175=VECTOR('',#613,10.);
#176=VECTOR('',#614,10.);
#177=VECTOR('',#617,10.);
#178=VECTOR('',#618,10.);
#179=VECTOR('',#619,10.);
#180=VECTOR('',#620,10.);
#181=VECTOR('',#623,10.);
#182=VECTOR('',#624,10.);
#183=VECTOR('',#625,10.);
#184=VECTOR('',#628,10.);
#185=VECTOR('',#631,10.);
#186=VECTOR('',#632,10.);
#187=VECTOR('',#633,10.);
#188=VECTOR('',#636,10.);
#189=VECTOR('',#637,10.);
#190=VECTOR('',#638,10.);
#191=VECTOR('',#639,10.);
#192=VECTOR('',#642,10.);
#193=VECTOR('',#643,10.);
#194=VECTOR('',#644,10.);
#195=VECTOR('',#645,10.);
#196=VECTOR('',#648,10.);
#197=VECTOR('',#649,10.);
#198=VECTOR('',#650,10.);
#199=VECTOR('',#653,10.);
#200=VECTOR('',#656,10.);
#201=VECTOR('',#657,10.);
#202=VECTOR('',#658,10.);
#203=VECTOR('',#659,10.);
#204=VECTOR('',#662,10.);
#205=VECTOR('',#663,10.);
#206=VECTOR('',#664,10.);
#207=VECTOR('',#667,10.);
#208=VECTOR('',#668,10.);
#209=VECTOR('',#669,10.);
#210=VECTOR('',#672,10.);
#211=VECTOR('',#675,10.);
#212=VECTOR('',#676,10.);
#213=VECTOR('',#677,10.);
#214=VECTOR('',#678,10.);
#215=VECTOR('',#681,10.);
#216=VECTOR('',#682,10.);
#217=VECTOR('',#683,10.);
#218=VECTOR('',#684,10.);
#219=VECTOR('',#687,10.);
#220=VECTOR('',#688,10.);
#221=VECTOR('',#689,10.);
#222=VECTOR('',#692,10.);
#223=VECTOR('',#695,10.);
#224=VECTOR('',#696,10.);
#225=VECTOR('',#699,10.);
#226=VECTOR('',#700,10.);
#227=VECTOR('',#703,10.);
#228=VECTOR('',#704,10.);
#229=CIRCLE('',#534,1.6);
#230=CIRCLE('',#535,1.6);
#231=CIRCLE('',#538,1.6);
#232=CIRCLE('',#539,1.6);
#233=CIRCLE('',#542,1.6);
#234=CIRCLE('',#543,1.6);
#235=CIRCLE('',#546,1.6);
#236=CIRCLE('',#547,1.6);
#237=VERTEX_POINT('',#711);
#238=VERTEX_POINT('',#713);
#239=VERTEX_POINT('',#718);
#240=VERTEX_POINT('',#720);
#241=VERTEX_POINT('',#725);
#242=VERTEX_POINT('',#727);
#243=VERTEX_POINT('',#732);
#244=VERTEX_POINT('',#734);
#245=VERTEX_POINT('',#739);
#246=VERTEX_POINT('',#740);
#247=VERTEX_POINT('',#742);
#248=VERTEX_POINT('',#744);
#249=VERTEX_POINT('',#748);
#250=VERTEX_POINT('',#749);
#251=VERTEX_POINT('',#752);
#252=VERTEX_POINT('',#756);
#253=VERTEX_POINT('',#758);
#254=VERTEX_POINT('',#764);
#255=VERTEX_POINT('',#766);
#256=VERTEX_POINT('',#770);
#257=VERTEX_POINT('',#771);
#258=VERTEX_POINT('',#773);
#259=VERTEX_POINT('',#775);
#260=VERTEX_POINT('',#779);
#261=VERTEX_POINT('',#781);
#262=VERTEX_POINT('',#783);
#263=VERTEX_POINT('',#787);
#264=VERTEX_POINT('',#789);
#265=VERTEX_POINT('',#795);
#266=VERTEX_POINT('',#796);
#267=VERTEX_POINT('',#798);
#268=VERTEX_POINT('',#800);
#269=VERTEX_POINT('',#805);
#270=VERTEX_POINT('',#809);
#271=VERTEX_POINT('',#811);
#272=VERTEX_POINT('',#817);
#273=VERTEX_POINT('',#818);
#274=VERTEX_POINT('',#820);
#275=VERTEX_POINT('',#822);
#276=VERTEX_POINT('',#826);
#277=VERTEX_POINT('',#827);
#278=VERTEX_POINT('',#830);
#279=VERTEX_POINT('',#834);
#280=VERTEX_POINT('',#836);
#281=EDGE_CURVE('',#237,#237,#229,.T.);
#282=EDGE_CURVE('',#237,#238,#109,.T.);
#283=EDGE_CURVE('',#238,#238,#230,.T.);
#284=EDGE_CURVE('',#239,#239,#231,.T.);
#285=EDGE_CURVE('',#239,#240,#110,.T.);
#286=EDGE_CURVE('',#240,#240,#232,.T.);
#287=EDGE_CURVE('',#241,#241,#233,.T.);
#288=EDGE_CURVE('',#241,#242,#111,.T.);
#289=EDGE_CURVE('',#242,#242,#234,.T.);
#290=EDGE_CURVE('',#243,#243,#235,.T.);
#291=EDGE_CURVE('',#243,#244,#112,.T.);
#292=EDGE_CURVE('',#244,#244,#236,.T.);
#293=EDGE_CURVE('',#245,#246,#113,.T.);
#294=EDGE_CURVE('',#245,#247,#114,.T.);
#295=EDGE_CURVE('',#248,#247,#115,.T.);
#296=EDGE_CURVE('',#246,#248,#116,.T.);
#297=EDGE_CURVE('',#249,#250,#117,.T.);
#298=EDGE_CURVE('',#246,#249,#118,.T.);
#299=EDGE_CURVE('',#251,#248,#119,.T.);
#300=EDGE_CURVE('',#250,#251,#120,.T.);
#301=EDGE_CURVE('',#250,#252,#121,.T.);
#302=EDGE_CURVE('',#253,#251,#122,.T.);
#303=EDGE_CURVE('',#252,#253,#123,.T.);
#304=EDGE_CURVE('',#247,#253,#124,.T.);
#305=EDGE_CURVE('',#249,#254,#125,.T.);
#306=EDGE_CURVE('',#254,#255,#126,.T.);
#307=EDGE_CURVE('',#246,#255,#127,.T.);
#308=EDGE_CURVE('',#256,#257,#128,.T.);
#309=EDGE_CURVE('',#257,#258,#129,.T.);
#310=EDGE_CURVE('',#259,#258,#130,.T.);
#311=EDGE_CURVE('',#256,#259,#131,.T.);
#312=EDGE_CURVE('',#260,#256,#132,.T.);
#313=EDGE_CURVE('',#261,#259,#133,.T.);
#314=EDGE_CURVE('',#262,#261,#134,.T.);
#315=EDGE_CURVE('',#260,#262,#135,.T.);
#316=EDGE_CURVE('',#262,#263,#136,.T.);
#317=EDGE_CURVE('',#264,#261,#137,.T.);
#318=EDGE_CURVE('',#263,#264,#138,.T.);
#319=EDGE_CURVE('',#258,#264,#139,.T.);
#320=EDGE_CURVE('',#265,#266,#140,.T.);
#321=EDGE_CURVE('',#266,#267,#141,.T.);
#322=EDGE_CURVE('',#268,#267,#142,.T.);
#323=EDGE_CURVE('',#265,#268,#143,.T.);
#324=EDGE_CURVE('',#254,#265,#144,.T.);
#325=EDGE_CURVE('',#269,#268,#145,.T.);
#326=EDGE_CURVE('',#255,#269,#146,.T.);
#327=EDGE_CURVE('',#255,#270,#147,.T.);
#328=EDGE_CURVE('',#271,#269,#148,.T.);
#329=EDGE_CURVE('',#270,#271,#149,.T.);
#330=EDGE_CURVE('',#267,#271,#150,.T.);
#331=EDGE_CURVE('',#272,#273,#151,.T.);
#332=EDGE_CURVE('',#272,#274,#152,.T.);
#333=EDGE_CURVE('',#275,#274,#153,.T.);
#334=EDGE_CURVE('',#273,#275,#154,.T.);
#335=EDGE_CURVE('',#276,#277,#155,.T.);
#336=EDGE_CURVE('',#273,#276,#156,.T.);
#337=EDGE_CURVE('',#278,#275,#157,.T.);
#338=EDGE_CURVE('',#277,#278,#158,.T.);
#339=EDGE_CURVE('',#277,#279,#159,.T.);
#340=EDGE_CURVE('',#280,#278,#160,.T.);
#341=EDGE_CURVE('',#279,#280,#161,.T.);
#342=EDGE_CURVE('',#274,#280,#162,.T.);
#343=EDGE_CURVE('',#273,#262,#163,.T.);
#344=EDGE_CURVE('',#276,#260,#164,.T.);
#345=EDGE_CURVE('',#257,#252,#165,.T.);
#346=EDGE_CURVE('',#263,#245,#166,.T.);
#347=EDGE_CURVE('',#266,#279,#167,.T.);
#348=EDGE_CURVE('',#270,#272,#168,.T.);
#349=ORIENTED_EDGE('',*,*,#281,.F.);
#350=ORIENTED_EDGE('',*,*,#282,.T.);
#351=ORIENTED_EDGE('',*,*,#283,.T.);
#352=ORIENTED_EDGE('',*,*,#282,.F.);
#353=ORIENTED_EDGE('',*,*,#283,.F.);
#354=ORIENTED_EDGE('',*,*,#284,.F.);
#355=ORIENTED_EDGE('',*,*,#285,.T.);
#356=ORIENTED_EDGE('',*,*,#286,.T.);
#357=ORIENTED_EDGE('',*,*,#285,.F.);
#358=ORIENTED_EDGE('',*,*,#286,.F.);
#359=ORIENTED_EDGE('',*,*,#287,.F.);
#360=ORIENTED_EDGE('',*,*,#288,.T.);
#361=ORIENTED_EDGE('',*,*,#289,.T.);
#362=ORIENTED_EDGE('',*,*,#288,.F.);
#363=ORIENTED_EDGE('',*,*,#289,.F.);
#364=ORIENTED_EDGE('',*,*,#290,.F.);
#365=ORIENTED_EDGE('',*,*,#291,.T.);
#366=ORIENTED_EDGE('',*,*,#292,.T.);
#367=ORIENTED_EDGE('',*,*,#291,.F.);
#368=ORIENTED_EDGE('',*,*,#292,.F.);
#369=ORIENTED_EDGE('',*,*,#293,.F.);
#370=ORIENTED_EDGE('',*,*,#294,.T.);
#371=ORIENTED_EDGE('',*,*,#295,.F.);
#372=ORIENTED_EDGE('',*,*,#296,.F.);
#373=ORIENTED_EDGE('',*,*,#297,.F.);
#374=ORIENTED_EDGE('',*,*,#298,.F.);
#375=ORIENTED_EDGE('',*,*,#296,.T.);
#376=ORIENTED_EDGE('',*,*,#299,.F.);
#377=ORIENTED_EDGE('',*,*,#300,.F.);
#378=ORIENTED_EDGE('',*,*,#301,.F.);
#379=ORIENTED_EDGE('',*,*,#300,.T.);
#380=ORIENTED_EDGE('',*,*,#302,.F.);
#381=ORIENTED_EDGE('',*,*,#303,.F.);
#382=ORIENTED_EDGE('',*,*,#302,.T.);
#383=ORIENTED_EDGE('',*,*,#299,.T.);
#384=ORIENTED_EDGE('',*,*,#295,.T.);
#385=ORIENTED_EDGE('',*,*,#304,.T.);
#386=ORIENTED_EDGE('',*,*,#298,.T.);
#387=ORIENTED_EDGE('',*,*,#305,.T.);
#388=ORIENTED_EDGE('',*,*,#306,.T.);
#389=ORIENTED_EDGE('',*,*,#307,.F.);
#390=ORIENTED_EDGE('',*,*,#308,.T.);
#391=ORIENTED_EDGE('',*,*,#309,.T.);
#392=ORIENTED_EDGE('',*,*,#310,.F.);
#393=ORIENTED_EDGE('',*,*,#311,.F.);
#394=ORIENTED_EDGE('',*,*,#312,.T.);
#395=ORIENTED_EDGE('',*,*,#311,.T.);
#396=ORIENTED_EDGE('',*,*,#313,.F.);
#397=ORIENTED_EDGE('',*,*,#314,.F.);
#398=ORIENTED_EDGE('',*,*,#315,.F.);
#399=ORIENTED_EDGE('',*,*,#316,.F.);
#400=ORIENTED_EDGE('',*,*,#314,.T.);
#401=ORIENTED_EDGE('',*,*,#317,.F.);
#402=ORIENTED_EDGE('',*,*,#318,.F.);
#403=ORIENTED_EDGE('',*,*,#319,.T.);
#404=ORIENTED_EDGE('',*,*,#317,.T.);
#405=ORIENTED_EDGE('',*,*,#313,.T.);
#406=ORIENTED_EDGE('',*,*,#310,.T.);
#407=ORIENTED_EDGE('',*,*,#320,.T.);
#408=ORIENTED_EDGE('',*,*,#321,.T.);
#409=ORIENTED_EDGE('',*,*,#322,.F.);
#410=ORIENTED_EDGE('',*,*,#323,.F.);
#411=ORIENTED_EDGE('',*,*,#324,.T.);
#412=ORIENTED_EDGE('',*,*,#323,.T.);
#413=ORIENTED_EDGE('',*,*,#325,.F.);
#414=ORIENTED_EDGE('',*,*,#326,.F.);
#415=ORIENTED_EDGE('',*,*,#306,.F.);
#416=ORIENTED_EDGE('',*,*,#327,.F.);
#417=ORIENTED_EDGE('',*,*,#326,.T.);
#418=ORIENTED_EDGE('',*,*,#328,.F.);
#419=ORIENTED_EDGE('',*,*,#329,.F.);
#420=ORIENTED_EDGE('',*,*,#330,.T.);
#421=ORIENTED_EDGE('',*,*,#328,.T.);
#422=ORIENTED_EDGE('',*,*,#325,.T.);
#423=ORIENTED_EDGE('',*,*,#322,.T.);
#424=ORIENTED_EDGE('',*,*,#331,.F.);
#425=ORIENTED_EDGE('',*,*,#332,.T.);
#426=ORIENTED_EDGE('',*,*,#333,.F.);
#427=ORIENTED_EDGE('',*,*,#334,.F.);
#428=ORIENTED_EDGE('',*,*,#335,.F.);
#429=ORIENTED_EDGE('',*,*,#336,.F.);
#430=ORIENTED_EDGE('',*,*,#334,.T.);
#431=ORIENTED_EDGE('',*,*,#337,.F.);
#432=ORIENTED_EDGE('',*,*,#338,.F.);
#433=ORIENTED_EDGE('',*,*,#339,.F.);
#434=ORIENTED_EDGE('',*,*,#338,.T.);
#435=ORIENTED_EDGE('',*,*,#340,.F.);
#436=ORIENTED_EDGE('',*,*,#341,.F.);
#437=ORIENTED_EDGE('',*,*,#340,.T.);
#438=ORIENTED_EDGE('',*,*,#337,.T.);
#439=ORIENTED_EDGE('',*,*,#333,.T.);
#440=ORIENTED_EDGE('',*,*,#342,.T.);
#441=ORIENTED_EDGE('',*,*,#315,.T.);
#442=ORIENTED_EDGE('',*,*,#343,.F.);
#443=ORIENTED_EDGE('',*,*,#336,.T.);
#444=ORIENTED_EDGE('',*,*,#344,.T.);
#445=ORIENTED_EDGE('',*,*,#345,.T.);
#446=ORIENTED_EDGE('',*,*,#303,.T.);
#447=ORIENTED_EDGE('',*,*,#304,.F.);
#448=ORIENTED_EDGE('',*,*,#294,.F.);
#449=ORIENTED_EDGE('',*,*,#346,.F.);
#450=ORIENTED_EDGE('',*,*,#318,.T.);
#451=ORIENTED_EDGE('',*,*,#319,.F.);
#452=ORIENTED_EDGE('',*,*,#309,.F.);
#453=ORIENTED_EDGE('',*,*,#347,.T.);
#454=ORIENTED_EDGE('',*,*,#341,.T.);
#455=ORIENTED_EDGE('',*,*,#342,.F.);
#456=ORIENTED_EDGE('',*,*,#332,.F.);
#457=ORIENTED_EDGE('',*,*,#348,.F.);
#458=ORIENTED_EDGE('',*,*,#329,.T.);
#459=ORIENTED_EDGE('',*,*,#330,.F.);
#460=ORIENTED_EDGE('',*,*,#321,.F.);
#461=ORIENTED_EDGE('',*,*,#348,.T.);
#462=ORIENTED_EDGE('',*,*,#331,.T.);
#463=ORIENTED_EDGE('',*,*,#343,.T.);
#464=ORIENTED_EDGE('',*,*,#316,.T.);
#465=ORIENTED_EDGE('',*,*,#346,.T.);
#466=ORIENTED_EDGE('',*,*,#293,.T.);
#467=ORIENTED_EDGE('',*,*,#307,.T.);
#468=ORIENTED_EDGE('',*,*,#327,.T.);
#469=ORIENTED_EDGE('',*,*,#347,.F.);
#470=ORIENTED_EDGE('',*,*,#320,.F.);
#471=ORIENTED_EDGE('',*,*,#324,.F.);
#472=ORIENTED_EDGE('',*,*,#305,.F.);
#473=ORIENTED_EDGE('',*,*,#297,.T.);
#474=ORIENTED_EDGE('',*,*,#301,.T.);
#475=ORIENTED_EDGE('',*,*,#345,.F.);
#476=ORIENTED_EDGE('',*,*,#308,.F.);
#477=ORIENTED_EDGE('',*,*,#312,.F.);
#478=ORIENTED_EDGE('',*,*,#344,.F.);
#479=ORIENTED_EDGE('',*,*,#335,.T.);
#480=ORIENTED_EDGE('',*,*,#339,.T.);
#481=ORIENTED_EDGE('',*,*,#281,.T.);
#482=ORIENTED_EDGE('',*,*,#284,.T.);
#483=ORIENTED_EDGE('',*,*,#287,.T.);
#484=ORIENTED_EDGE('',*,*,#290,.T.);
#485=CYLINDRICAL_SURFACE('',#533,1.6);
#486=CYLINDRICAL_SURFACE('',#537,1.6);
#487=CYLINDRICAL_SURFACE('',#541,1.6);
#488=CYLINDRICAL_SURFACE('',#545,1.6);
#489=ADVANCED_FACE('',(#45),#485,.F.);
#490=ADVANCED_FACE('',(#46),#19,.T.);
#491=ADVANCED_FACE('',(#47),#486,.F.);
#492=ADVANCED_FACE('',(#48),#20,.T.);
#493=ADVANCED_FACE('',(#49),#487,.F.);
#494=ADVANCED_FACE('',(#50),#21,.T.);
#495=ADVANCED_FACE('',(#51),#488,.F.);
#496=ADVANCED_FACE('',(#52),#22,.T.);
#497=ADVANCED_FACE('',(#53),#23,.T.);
#498=ADVANCED_FACE('',(#54),#24,.T.);
#499=ADVANCED_FACE('',(#55),#25,.T.);
#500=ADVANCED_FACE('',(#56),#26,.T.);
#501=ADVANCED_FACE('',(#57),#27,.T.);
#502=ADVANCED_FACE('',(#58),#28,.T.);
#503=ADVANCED_FACE('',(#59),#29,.T.);
#504=ADVANCED_FACE('',(#60),#30,.T.);
#505=ADVANCED_FACE('',(#61),#31,.T.);
#506=ADVANCED_FACE('',(#62),#32,.T.);
#507=ADVANCED_FACE('',(#63),#33,.T.);
#508=ADVANCED_FACE('',(#64),#34,.T.);
#509=ADVANCED_FACE('',(#65),#35,.T.);
#510=ADVANCED_FACE('',(#66),#36,.T.);
#511=ADVANCED_FACE('',(#67),#37,.T.);
#512=ADVANCED_FACE('',(#68),#38,.T.);
#513=ADVANCED_FACE('',(#69),#39,.T.);
#514=ADVANCED_FACE('',(#70),#40,.T.);
#515=ADVANCED_FACE('',(#71),#41,.T.);
#516=ADVANCED_FACE('',(#72),#42,.T.);
#517=ADVANCED_FACE('',(#73),#43,.T.);
#518=ADVANCED_FACE('',(#74,#15,#16,#17,#18),#44,.F.);
#519=CLOSED_SHELL('',(#489,#490,#491,#492,#493,#494,#495,#496,#497,#498,
#499,#500,#501,#502,#503,#504,#505,#506,#507,#508,#509,#510,#511,#512,#513,
#514,#515,#516,#517,#518));
#520=DERIVED_UNIT_ELEMENT(#522,1.);
#521=DERIVED_UNIT_ELEMENT(#857,-3.);
#522=(
MASS_UNIT()
NAMED_UNIT(*)
SI_UNIT(.KILO.,.GRAM.)
);
#523=DERIVED_UNIT((#520,#521));
#524=MEASURE_REPRESENTATION_ITEM('density measure',
POSITIVE_RATIO_MEASURE(7850.),#523);
#525=PROPERTY_DEFINITION_REPRESENTATION(#530,#527);
#526=PROPERTY_DEFINITION_REPRESENTATION(#531,#528);
#527=REPRESENTATION('material name',(#529),#854);
#528=REPRESENTATION('density',(#524),#854);
#529=DESCRIPTIVE_REPRESENTATION_ITEM('Steel','Steel');
#530=PROPERTY_DEFINITION('material property','material name',#864);
#531=PROPERTY_DEFINITION('material property','density of part',#864);
#532=AXIS2_PLACEMENT_3D('',#709,#571,#572);
#533=AXIS2_PLACEMENT_3D('',#710,#573,#574);
#534=AXIS2_PLACEMENT_3D('',#712,#575,#576);
#535=AXIS2_PLACEMENT_3D('',#715,#578,#579);
#536=AXIS2_PLACEMENT_3D('',#716,#580,#581);
#537=AXIS2_PLACEMENT_3D('',#717,#582,#583);
#538=AXIS2_PLACEMENT_3D('',#719,#584,#585);
#539=AXIS2_PLACEMENT_3D('',#722,#587,#588);
#540=AXIS2_PLACEMENT_3D('',#723,#589,#590);
#541=AXIS2_PLACEMENT_3D('',#724,#591,#592);
#542=AXIS2_PLACEMENT_3D('',#726,#593,#594);
#543=AXIS2_PLACEMENT_3D('',#729,#596,#597);
#544=AXIS2_PLACEMENT_3D('',#730,#598,#599);
#545=AXIS2_PLACEMENT_3D('',#731,#600,#601);
#546=AXIS2_PLACEMENT_3D('',#733,#602,#603);
#547=AXIS2_PLACEMENT_3D('',#736,#605,#606);
#548=AXIS2_PLACEMENT_3D('',#737,#607,#608);
#549=AXIS2_PLACEMENT_3D('',#738,#609,#610);
#550=AXIS2_PLACEMENT_3D('',#747,#615,#616);
#551=AXIS2_PLACEMENT_3D('',#755,#621,#622);
#552=AXIS2_PLACEMENT_3D('',#761,#626,#627);
#553=AXIS2_PLACEMENT_3D('',#763,#629,#630);
#554=AXIS2_PLACEMENT_3D('',#769,#634,#635);
#555=AXIS2_PLACEMENT_3D('',#778,#640,#641);
#556=AXIS2_PLACEMENT_3D('',#786,#646,#647);
#557=AXIS2_PLACEMENT_3D('',#792,#651,#652);
#558=AXIS2_PLACEMENT_3D('',#794,#654,#655);
#559=AXIS2_PLACEMENT_3D('',#803,#660,#661);
#560=AXIS2_PLACEMENT_3D('',#808,#665,#666);
#561=AXIS2_PLACEMENT_3D('',#814,#670,#671);
#562=AXIS2_PLACEMENT_3D('',#816,#673,#674);
#563=AXIS2_PLACEMENT_3D('',#825,#679,#680);
#564=AXIS2_PLACEMENT_3D('',#833,#685,#686);
#565=AXIS2_PLACEMENT_3D('',#839,#690,#691);
#566=AXIS2_PLACEMENT_3D('',#841,#693,#694);
#567=AXIS2_PLACEMENT_3D('',#844,#697,#698);
#568=AXIS2_PLACEMENT_3D('',#847,#701,#702);
#569=AXIS2_PLACEMENT_3D('',#850,#705,#706);
#570=AXIS2_PLACEMENT_3D('',#851,#707,#708);
#571=DIRECTION('axis',(0.,0.,1.));
#572=DIRECTION('refdir',(1.,0.,0.));
#573=DIRECTION('center_axis',(0.,0.,1.));
#574=DIRECTION('ref_axis',(1.,0.,0.));
#575=DIRECTION('center_axis',(0.,0.,1.));
#576=DIRECTION('ref_axis',(1.,0.,0.));
#577=DIRECTION('',(0.,0.,1.));
#578=DIRECTION('center_axis',(0.,0.,1.));
#579=DIRECTION('ref_axis',(1.,0.,0.));
#580=DIRECTION('center_axis',(0.,0.,-1.));
#581=DIRECTION('ref_axis',(1.,0.,0.));
#582=DIRECTION('center_axis',(0.,0.,1.));
#583=DIRECTION('ref_axis',(1.,0.,0.));
#584=DIRECTION('center_axis',(0.,0.,1.));
#585=DIRECTION('ref_axis',(1.,0.,0.));
#586=DIRECTION('',(0.,0.,1.));
#587=DIRECTION('center_axis',(0.,0.,1.));
#588=DIRECTION('ref_axis',(1.,0.,0.));
#589=DIRECTION('center_axis',(0.,0.,-1.));
#590=DIRECTION('ref_axis',(1.,0.,0.));
#591=DIRECTION('center_axis',(0.,0.,1.));
#592=DIRECTION('ref_axis',(1.,0.,0.));
#593=DIRECTION('center_axis',(0.,0.,1.));
#594=DIRECTION('ref_axis',(1.,0.,0.));
#595=DIRECTION('',(0.,0.,1.));
#596=DIRECTION('center_axis',(0.,0.,1.));
#597=DIRECTION('ref_axis',(1.,0.,0.));
#598=DIRECTION('center_axis',(0.,0.,-1.));
#599=DIRECTION('ref_axis',(1.,0.,0.));
#600=DIRECTION('center_axis',(0.,0.,1.));
#601=DIRECTION('ref_axis',(1.,0.,0.));
#602=DIRECTION('center_axis',(0.,0.,1.));
#603=DIRECTION('ref_axis',(1.,0.,0.));
#604=DIRECTION('',(0.,0.,1.));
#605=DIRECTION('center_axis',(0.,0.,1.));
#606=DIRECTION('ref_axis',(1.,0.,0.));
#607=DIRECTION('center_axis',(0.,0.,-1.));
#608=DIRECTION('ref_axis',(1.,0.,0.));
#609=DIRECTION('center_axis',(0.,1.,0.));
#610=DIRECTION('ref_axis',(-1.,0.,0.));
#611=DIRECTION('',(1.,0.,0.));
#612=DIRECTION('',(0.,0.,1.));
#613=DIRECTION('',(-1.,0.,0.));
#614=DIRECTION('',(0.,0.,1.));
#615=DIRECTION('center_axis',(1.,0.,0.));
#616=DIRECTION('ref_axis',(0.,1.,0.));
#617=DIRECTION('',(0.,-1.,0.));
#618=DIRECTION('',(0.,0.,-1.));
#619=DIRECTION('',(0.,1.,0.));
#620=DIRECTION('',(0.,0.,1.));
#621=DIRECTION('center_axis',(0.,-1.,0.));
#622=DIRECTION('ref_axis',(1.,0.,0.));
#623=DIRECTION('',(-1.,0.,0.));
#624=DIRECTION('',(1.,0.,0.));
#625=DIRECTION('',(0.,0.,1.));
#626=DIRECTION('center_axis',(0.,0.,1.));
#627=DIRECTION('ref_axis',(1.,0.,0.));
#628=DIRECTION('',(0.,-1.,0.));
#629=DIRECTION('center_axis',(0.,-1.,0.));
#630=DIRECTION('ref_axis',(1.,0.,0.));
#631=DIRECTION('',(1.,0.,0.));
#632=DIRECTION('',(0.,0.,1.));
#633=DIRECTION('',(1.,0.,0.));
#634=DIRECTION('center_axis',(0.,1.,0.));
#635=DIRECTION('ref_axis',(-1.,0.,0.));
#636=DIRECTION('',(-1.,0.,0.));
#637=DIRECTION('',(0.,0.,1.));
#638=DIRECTION('',(-1.,0.,0.));
#639=DIRECTION('',(0.,0.,1.));
#640=DIRECTION('center_axis',(1.,0.,0.));
#641=DIRECTION('ref_axis',(0.,1.,0.));
#642=DIRECTION('',(0.,1.,0.));
#643=DIRECTION('',(0.,1.,0.));
#644=DIRECTION('',(0.,0.,1.));
#645=DIRECTION('',(0.,0.,1.));
#646=DIRECTION('center_axis',(0.,-1.,0.));
#647=DIRECTION('ref_axis',(1.,0.,0.));
#648=DIRECTION('',(-1.,-6.40821370635011E-17,0.));
#649=DIRECTION('',(1.,0.,0.));
#650=DIRECTION('',(0.,0.,1.));
#651=DIRECTION('center_axis',(0.,0.,1.));
#652=DIRECTION('ref_axis',(1.,0.,0.));
#653=DIRECTION('',(0.,-1.,0.));
#654=DIRECTION('center_axis',(0.,-1.,0.));
#655=DIRECTION('ref_axis',(1.,0.,0.));
#656=DIRECTION('',(1.,0.,0.));
#657=DIRECTION('',(0.,0.,1.));
#658=DIRECTION('',(1.,0.,0.));
#659=DIRECTION('',(0.,0.,1.));
#660=DIRECTION('center_axis',(-1.,0.,0.));
#661=DIRECTION('ref_axis',(0.,-1.,0.));
#662=DIRECTION('',(0.,-1.,0.));
#663=DIRECTION('',(0.,-1.,0.));
#664=DIRECTION('',(0.,0.,1.));
#665=DIRECTION('center_axis',(0.,1.,0.));
#666=DIRECTION('ref_axis',(-1.,0.,0.));
#667=DIRECTION('',(1.,0.,0.));
#668=DIRECTION('',(-1.,0.,0.));
#669=DIRECTION('',(0.,0.,1.));
#670=DIRECTION('center_axis',(0.,0.,1.));
#671=DIRECTION('ref_axis',(1.,0.,0.));
#672=DIRECTION('',(0.,1.,0.));
#673=DIRECTION('center_axis',(0.,-1.,0.));
#674=DIRECTION('ref_axis',(1.,0.,0.));
#675=DIRECTION('',(-1.,-6.40821370635011E-17,0.));
#676=DIRECTION('',(0.,0.,1.));
#677=DIRECTION('',(1.,0.,0.));
#678=DIRECTION('',(0.,0.,1.));
#679=DIRECTION('center_axis',(-1.,0.,0.));
#680=DIRECTION('ref_axis',(0.,-1.,0.));
#681=DIRECTION('',(0.,1.,0.));
#682=DIRECTION('',(0.,0.,-1.));
#683=DIRECTION('',(0.,-1.,0.));
#684=DIRECTION('',(0.,0.,1.));
#685=DIRECTION('center_axis',(0.,1.,0.));
#686=DIRECTION('ref_axis',(-1.,0.,0.));
#687=DIRECTION('',(1.,0.,0.));
#688=DIRECTION('',(-1.,0.,0.));
#689=DIRECTION('',(0.,0.,1.));
#690=DIRECTION('center_axis',(0.,0.,1.));
#691=DIRECTION('ref_axis',(1.,0.,0.));
#692=DIRECTION('',(0.,1.,0.));
#693=DIRECTION('center_axis',(-6.40821370635011E-17,1.,0.));
#694=DIRECTION('ref_axis',(-1.,-6.40821370635011E-17,0.));
#695=DIRECTION('',(-1.,-6.40821370635011E-17,0.));
#696=DIRECTION('',(-1.,-6.40821370635011E-17,0.));
#697=DIRECTION('center_axis',(-1.,0.,0.));
#698=DIRECTION('ref_axis',(0.,-1.,0.));
#699=DIRECTION('',(0.,-1.,0.));
#700=DIRECTION('',(0.,-1.,0.));
#701=DIRECTION('center_axis',(1.,0.,0.));
#702=DIRECTION('ref_axis',(0.,1.,0.));
#703=DIRECTION('',(0.,1.,0.));
#704=DIRECTION('',(0.,1.,0.));
#705=DIRECTION('center_axis',(0.,0.,1.));
#706=DIRECTION('ref_axis',(1.,0.,0.));
#707=DIRECTION('center_axis',(0.,0.,1.));
#708=DIRECTION('ref_axis',(1.,0.,0.));
#709=CARTESIAN_POINT('',(0.,0.,0.));
#710=CARTESIAN_POINT('Origin',(32.15,-28.15,0.));
#711=CARTESIAN_POINT('',(30.55,-28.15,0.));
#712=CARTESIAN_POINT('Origin',(32.15,-28.15,0.));
#713=CARTESIAN_POINT('',(30.55,-28.15,3.1));
#714=CARTESIAN_POINT('',(30.55,-28.15,0.));
#715=CARTESIAN_POINT('Origin',(32.15,-28.15,3.1));
#716=CARTESIAN_POINT('Origin',(32.15,-28.15,3.1));
#717=CARTESIAN_POINT('Origin',(32.15,28.15,0.));
#718=CARTESIAN_POINT('',(30.55,28.15,0.));
#719=CARTESIAN_POINT('Origin',(32.15,28.15,0.));
#720=CARTESIAN_POINT('',(30.55,28.15,3.1));
#721=CARTESIAN_POINT('',(30.55,28.15,0.));
#722=CARTESIAN_POINT('Origin',(32.15,28.15,3.1));
#723=CARTESIAN_POINT('Origin',(32.15,28.15,3.1));
#724=CARTESIAN_POINT('Origin',(-32.15,-28.15,0.));
#725=CARTESIAN_POINT('',(-33.75,-28.15,0.));
#726=CARTESIAN_POINT('Origin',(-32.15,-28.15,0.));
#727=CARTESIAN_POINT('',(-33.75,-28.15,3.1));
#728=CARTESIAN_POINT('',(-33.75,-28.15,0.));
#729=CARTESIAN_POINT('Origin',(-32.15,-28.15,3.1));
#730=CARTESIAN_POINT('Origin',(-32.15,-28.15,3.1));
#731=CARTESIAN_POINT('Origin',(-32.15,28.15,0.));
#732=CARTESIAN_POINT('',(-33.75,28.15,0.));
#733=CARTESIAN_POINT('Origin',(-32.15,28.15,0.));
#734=CARTESIAN_POINT('',(-33.75,28.15,3.1));
#735=CARTESIAN_POINT('',(-33.75,28.15,0.));
#736=CARTESIAN_POINT('Origin',(-32.15,28.15,3.1));
#737=CARTESIAN_POINT('Origin',(-32.15,28.15,3.1));
#738=CARTESIAN_POINT('Origin',(-29.65,-25.65,0.));
#739=CARTESIAN_POINT('',(-34.65,-25.65,2.));
#740=CARTESIAN_POINT('',(-29.65,-25.65,2.));
#741=CARTESIAN_POINT('',(-34.65,-25.65,2.));
#742=CARTESIAN_POINT('',(-34.65,-25.65,5.));
#743=CARTESIAN_POINT('',(-34.65,-25.65,0.));
#744=CARTESIAN_POINT('',(-29.65,-25.65,5.));
#745=CARTESIAN_POINT('',(-34.65,-25.65,5.));
#746=CARTESIAN_POINT('',(-29.65,-25.65,0.));
#747=CARTESIAN_POINT('Origin',(-29.65,-30.65,0.));
#748=CARTESIAN_POINT('',(-29.65,-25.65,0.));
#749=CARTESIAN_POINT('',(-29.65,-30.65,0.));
#750=CARTESIAN_POINT('',(-29.65,-25.65,0.));
#751=CARTESIAN_POINT('',(-29.65,-25.65,0.));
#752=CARTESIAN_POINT('',(-29.65,-30.65,5.));
#753=CARTESIAN_POINT('',(-29.65,-25.65,5.));
#754=CARTESIAN_POINT('',(-29.65,-30.65,0.));
#755=CARTESIAN_POINT('Origin',(-34.65,-30.65,0.));
#756=CARTESIAN_POINT('',(-34.65,-30.65,0.));
#757=CARTESIAN_POINT('',(-29.65,-30.65,0.));
#758=CARTESIAN_POINT('',(-34.65,-30.65,5.));
#759=CARTESIAN_POINT('',(-29.65,-30.65,5.));
#760=CARTESIAN_POINT('',(-34.65,-30.65,0.));
#761=CARTESIAN_POINT('Origin',(-32.15,-28.15,5.));
#762=CARTESIAN_POINT('',(-34.65,-30.65,5.));
#763=CARTESIAN_POINT('Origin',(-34.65,-25.65,0.));
#764=CARTESIAN_POINT('',(29.65,-25.65,0.));
#765=CARTESIAN_POINT('',(-34.65,-25.65,0.));
#766=CARTESIAN_POINT('',(29.65,-25.65,2.));
#767=CARTESIAN_POINT('',(29.65,-25.65,0.));
#768=CARTESIAN_POINT('',(-34.65,-25.65,2.));
#769=CARTESIAN_POINT('Origin',(-29.65,30.65,0.));
#770=CARTESIAN_POINT('',(-29.65,30.65,0.));
#771=CARTESIAN_POINT('',(-34.65,30.65,0.));
#772=CARTESIAN_POINT('',(-29.65,30.65,0.));
#773=CARTESIAN_POINT('',(-34.65,30.65,5.));
#774=CARTESIAN_POINT('',(-34.65,30.65,0.));
#775=CARTESIAN_POINT('',(-29.65,30.65,5.));
#776=CARTESIAN_POINT('',(-29.65,30.65,5.));
#777=CARTESIAN_POINT('',(-29.65,30.65,0.));
#778=CARTESIAN_POINT('Origin',(-29.65,25.65,0.));
#779=CARTESIAN_POINT('',(-29.65,25.65,0.));
#780=CARTESIAN_POINT('',(-29.65,25.65,0.));
#781=CARTESIAN_POINT('',(-29.65,25.65,5.));
#782=CARTESIAN_POINT('',(-29.65,25.65,5.));
#783=CARTESIAN_POINT('',(-29.65,25.65,2.));
#784=CARTESIAN_POINT('',(-29.65,25.65,0.));
#785=CARTESIAN_POINT('',(-29.65,25.65,0.));
#786=CARTESIAN_POINT('Origin',(-34.65,25.65,0.));
#787=CARTESIAN_POINT('',(-34.65,25.65,2.));
#788=CARTESIAN_POINT('',(34.65,25.65,2.));
#789=CARTESIAN_POINT('',(-34.65,25.65,5.));
#790=CARTESIAN_POINT('',(-34.65,25.65,5.));
#791=CARTESIAN_POINT('',(-34.65,25.65,0.));
#792=CARTESIAN_POINT('Origin',(-32.15,28.15,5.));
#793=CARTESIAN_POINT('',(-34.65,30.65,5.));
#794=CARTESIAN_POINT('Origin',(29.65,-30.65,0.));
#795=CARTESIAN_POINT('',(29.65,-30.65,0.));
#796=CARTESIAN_POINT('',(34.65,-30.65,0.));
#797=CARTESIAN_POINT('',(29.65,-30.65,0.));
#798=CARTESIAN_POINT('',(34.65,-30.65,5.));
#799=CARTESIAN_POINT('',(34.65,-30.65,0.));
#800=CARTESIAN_POINT('',(29.65,-30.65,5.));
#801=CARTESIAN_POINT('',(29.65,-30.65,5.));
#802=CARTESIAN_POINT('',(29.65,-30.65,0.));
#803=CARTESIAN_POINT('Origin',(29.65,-25.65,0.));
#804=CARTESIAN_POINT('',(29.65,-25.65,0.));
#805=CARTESIAN_POINT('',(29.65,-25.65,5.));
#806=CARTESIAN_POINT('',(29.65,-25.65,5.));
#807=CARTESIAN_POINT('',(29.65,-25.65,0.));
#808=CARTESIAN_POINT('Origin',(34.65,-25.65,0.));
#809=CARTESIAN_POINT('',(34.65,-25.65,2.));
#810=CARTESIAN_POINT('',(-34.65,-25.65,2.));
#811=CARTESIAN_POINT('',(34.65,-25.65,5.));
#812=CARTESIAN_POINT('',(34.65,-25.65,5.));
#813=CARTESIAN_POINT('',(34.65,-25.65,0.));
#814=CARTESIAN_POINT('Origin',(32.15,-28.15,5.));
#815=CARTESIAN_POINT('',(34.65,-30.65,5.));
#816=CARTESIAN_POINT('Origin',(29.65,25.65,0.));
#817=CARTESIAN_POINT('',(34.65,25.65,2.));
#818=CARTESIAN_POINT('',(29.65,25.65,2.));
#819=CARTESIAN_POINT('',(34.65,25.65,2.));
#820=CARTESIAN_POINT('',(34.65,25.65,5.));
#821=CARTESIAN_POINT('',(34.65,25.65,0.));
#822=CARTESIAN_POINT('',(29.65,25.65,5.));
#823=CARTESIAN_POINT('',(34.65,25.65,5.));
#824=CARTESIAN_POINT('',(29.65,25.65,0.));
#825=CARTESIAN_POINT('Origin',(29.65,30.65,0.));
#826=CARTESIAN_POINT('',(29.65,25.65,0.));
#827=CARTESIAN_POINT('',(29.65,30.65,0.));
#828=CARTESIAN_POINT('',(29.65,25.65,0.));
#829=CARTESIAN_POINT('',(29.65,25.65,0.));
#830=CARTESIAN_POINT('',(29.65,30.65,5.));
#831=CARTESIAN_POINT('',(29.65,25.65,5.));
#832=CARTESIAN_POINT('',(29.65,30.65,0.));
#833=CARTESIAN_POINT('Origin',(34.65,30.65,0.));
#834=CARTESIAN_POINT('',(34.65,30.65,0.));
#835=CARTESIAN_POINT('',(29.65,30.65,0.));
#836=CARTESIAN_POINT('',(34.65,30.65,5.));
#837=CARTESIAN_POINT('',(29.65,30.65,5.));
#838=CARTESIAN_POINT('',(34.65,30.65,0.));
#839=CARTESIAN_POINT('Origin',(32.15,28.15,5.));
#840=CARTESIAN_POINT('',(34.65,30.65,5.));
#841=CARTESIAN_POINT('Origin',(34.65,25.65,0.));
#842=CARTESIAN_POINT('',(34.65,25.65,2.));
#843=CARTESIAN_POINT('',(34.65,25.65,0.));
#844=CARTESIAN_POINT('Origin',(-34.65,25.65,0.));
#845=CARTESIAN_POINT('',(-34.65,30.65,0.));
#846=CARTESIAN_POINT('',(-34.65,25.65,2.));
#847=CARTESIAN_POINT('Origin',(34.65,-25.65,0.));
#848=CARTESIAN_POINT('',(34.65,-25.65,0.));
#849=CARTESIAN_POINT('',(34.65,-25.65,2.));
#850=CARTESIAN_POINT('Origin',(8.88178419700125E-15,0.,2.));
#851=CARTESIAN_POINT('Origin',(8.88178419700125E-15,0.,0.));
#852=UNCERTAINTY_MEASURE_WITH_UNIT(LENGTH_MEASURE(0.01),#856,
'DISTANCE_ACCURACY_VALUE',
'Maximum model space distance between geometric entities at asserted c
onnectivities');
#853=UNCERTAINTY_MEASURE_WITH_UNIT(LENGTH_MEASURE(0.01),#856,
'DISTANCE_ACCURACY_VALUE',
'Maximum model space distance between geometric entities at asserted c
onnectivities');
#854=(
GEOMETRIC_REPRESENTATION_CONTEXT(3)
GLOBAL_UNCERTAINTY_ASSIGNED_CONTEXT((#852))
GLOBAL_UNIT_ASSIGNED_CONTEXT((#856,#858,#859))
REPRESENTATION_CONTEXT('','3D')
);
#855=(
GEOMETRIC_REPRESENTATION_CONTEXT(3)
GLOBAL_UNCERTAINTY_ASSIGNED_CONTEXT((#853))
GLOBAL_UNIT_ASSIGNED_CONTEXT((#856,#858,#859))
REPRESENTATION_CONTEXT('','3D')
);
#856=(
LENGTH_UNIT()
NAMED_UNIT(*)
SI_UNIT(.MILLI.,.METRE.)
);
#857=(
LENGTH_UNIT()
NAMED_UNIT(*)
SI_UNIT($,.METRE.)
);
#858=(
NAMED_UNIT(*)
PLANE_ANGLE_UNIT()
SI_UNIT($,.RADIAN.)
);
#859=(
NAMED_UNIT(*)
SI_UNIT($,.STERADIAN.)
SOLID_ANGLE_UNIT()
);
#860=SHAPE_DEFINITION_REPRESENTATION(#861,#862);
#861=PRODUCT_DEFINITION_SHAPE('',$,#864);
#862=SHAPE_REPRESENTATION('',(#532),#854);
#863=PRODUCT_DEFINITION_CONTEXT('part definition',#868,'design');
#864=PRODUCT_DEFINITION('2026-08-19-01-06-16-783','Case TOP NEW',#865,#863);
#865=PRODUCT_DEFINITION_FORMATION('',$,#870);
#866=PRODUCT_RELATED_PRODUCT_CATEGORY('Case TOP NEW','Case TOP NEW',(#870));
#867=APPLICATION_PROTOCOL_DEFINITION('international standard',
'automotive_design',2009,#868);
#868=APPLICATION_CONTEXT(
'Core Data for Automotive Mechanical Design Process');
#869=PRODUCT_CONTEXT('part definition',#868,'mechanical');
#870=PRODUCT('2026-08-19-01-06-16-783','Case TOP NEW',$,(#869));
#871=PRESENTATION_STYLE_ASSIGNMENT((#872));
#872=SURFACE_STYLE_USAGE(.BOTH.,#873);
#873=SURFACE_SIDE_STYLE('',(#874));
#874=SURFACE_STYLE_FILL_AREA(#875);
#875=FILL_AREA_STYLE('Steel - Satin',(#876));
#876=FILL_AREA_STYLE_COLOUR('Steel - Satin',#877);
#877=COLOUR_RGB('Steel - Satin',0.627450980392157,0.627450980392157,0.627450980392157);
ENDSEC;
END-ISO-10303-21;
